Coordinates
version=1
nRows=9
nColumns=24
inDegrees=yes

Units are S.I. units (second, meters, Newtons, ...)
Angles are in degrees.

endheader
time	pelvis_tilt	pelvis_list	pelvis_rotation	pelvis_tx	pelvis_ty	pelvis_tz	hip_flexion_r	hip_adduction_r	hip_rotation_r	knee_angle_r	ankle_angle_r	subtalar_angle_r	mtp_angle_r	hip_flexion_l	hip_adduction_l	hip_rotation_l	knee_angle_l	ankle_angle_l	subtalar_angle_l	mtp_angle_l	lumbar_extension	lumbar_bending	lumbar_rotation
      0.92033333	     -4.67116864	     -4.32404119	     -2.62494010	     -0.17074683	      0.98053170	      0.29869047	     -7.42178139	      8.09639398	     -2.75657986	    -10.16691195	     12.09064625	     -2.27928045	     -2.13731006	     27.01899600	     -2.47184373	     -4.68472707	     -3.07008249	     -1.38916565	     -0.83957116	     -1.56563498	     -0.87354574	      8.28496236	      8.58759870
      0.92450000	     -4.76706773	     -4.25577930	     -2.63835611	     -0.16488733	      0.97996388	      0.29836804	     -7.29993983	      7.96885503	     -2.71126968	    -10.90198511	     12.23947033	     -2.24745390	     -2.04923689	     27.02032976	     -2.32880358	     -4.41790312	     -3.19433962	     -1.70599705	     -1.15159041	     -1.34553532	     -0.72062036	      8.20249556	      8.60222176
      0.92866667	     -4.84266223	     -4.16984600	     -2.63748958	     -0.15899349	      0.97947404	      0.29802412	     -7.17697796	      7.82159794	     -2.68800643	    -11.67134567	     12.27365522	     -2.27040313	     -1.94561453	     27.01081667	     -2.16625690	     -4.18568413	     -3.40107665	     -2.03507775	     -1.43659809	     -1.10374255	     -0.59309379	      8.10780401	      8.59706061
      0.93283333	     -4.85946750	     -4.05402510	     -2.59421443	     -0.15302226	      0.97910565	      0.29761351	     -7.09145850	      7.63424154	     -2.78682242	    -12.48047104	     12.23301716	     -2.18738967	     -0.24352605	     26.94239310	     -1.95786622	     -3.95744853	     -3.66460519	     -2.41794359	     -1.75595276	      2.41478887	     -0.52098160	      7.96737723	      8.56484127
      0.93700000	     -4.94734436	     -3.95210465	     -2.60228449	     -0.14709446	      0.97871796	      0.29728759	     -6.90778961	      7.47803439	     -2.67483079	    -13.33125209	     12.17276549	     -2.38499901	     -0.20645500	     26.94259025	     -1.78904347	     -3.72412881	     -3.97016943	     -2.77836612	     -2.10106806	      2.43126951	     -0.37898035	      7.85955608	      8.55509834
      0.94116667	     -5.01134331	     -3.84821414	     -2.58637022	     -0.14114275	      0.97841022	      0.29691129	     -6.70696116	      7.31393828	     -2.64557649	    -14.25922274	     12.09387101	     -2.48332328	     -0.13031420	     26.91140865	     -1.60589920	     -3.42815690	     -4.30254942	     -3.15083134	     -2.55738255	      2.47461957	     -0.24827154	      7.73480909	      8.53485538
      0.94533333	     -5.06524800	     -3.72892318	     -2.56023744	     -0.13516690	      0.97815061	      0.29651181	     -6.48133535	      7.12946573	     -2.64611658	    -15.24900598	     11.96930723	     -2.56242883	     -0.02398937	     26.87044091	     -1.40498349	     -3.14003840	     -4.66937284	     -3.52454203	     -3.00851766	      2.53476401	     -0.12628964	      7.58905738	      8.50071595
      0.94950000	     -5.13862206	     -3.60036475	     -2.53622857	     -0.12918409	      0.97792297	      0.29609467	     -6.19506786	      6.93269572	     -2.64721446	    -16.30461791	     11.78963081	     -2.64046012	      0.11549629	     26.84982443	     -1.19652565	     -2.85605827	     -5.06387446	     -3.90069006	     -3.48006137	      2.60825221	      0.01541670	      7.44602863	      8.46349173
      0.95366667	     -5.19366662	     -3.46296133	     -2.50506327	     -0.12318525	      0.97776271	      0.29565191	     -5.88962489	      6.71996033	     -2.67815616	    -17.42486530	     11.55516873	     -2.69846319	      0.29695259	     26.80444432	     -0.97645860	     -2.57424824	     -5.47044917	     -4.27894632	     -3.97863838	      2.69389337	      0.14068587	      7.28043764	      8.41936554
